<svg xmlns="http://www.w3.org/2000/svg" width="256" height="256" viewBox="0 0 100 100"><path d="M47.31 22.66L47.31 22.66Q47.31 22.97 47.23 23.20L47.23 23.20Q47.15 23.44 47.15 23.59L47.15 23.59Q46.92 23.83 46.76 24.06L46.76 24.06Q46.61 24.38 46.53 24.45L46.53 24.45L46.37 24.61Q45.98 25 45.79 25.20Q45.59 25.39 45.12 25.70L45.12 25.70Q44.65 25.63 44.42 25.66Q44.18 25.70 44.03 25.70L44.03 25.70Q43.64 25.86 43.29 25.78Q42.93 25.70 42.54 25.70L42.54 25.70Q41.68 25.78 41.37 25.82Q41.06 25.86 40.90 25.86L40.90 25.86Q40.43 26.33 40.39 26.68Q40.36 27.03 40.36 27.42L40.36 27.42Q40.51 28.75 40.63 29.26Q40.75 29.77 40.90 30.16L40.90 30.16Q40.90 30.55 40.86 31.05Q40.82 31.56 40.82 32.11L40.82 32.11Q40.82 32.42 40.86 32.62Q40.90 32.81 40.90 32.97L40.90 32.97Q40.90 33.20 40.98 33.28L40.98 33.28L40.98 33.83Q40.98 34.06 40.94 34.30Q40.90 34.53 40.98 34.61L40.98 34.61Q41.14 35 41.29 35.39Q41.45 35.78 41.61 36.33L41.61 36.33Q41.45 37.03 41.41 37.34Q41.37 37.66 41.37 37.81L41.37 37.81Q41.37 38.67 41.41 38.95Q41.45 39.22 41.45 39.30L41.45 39.30Q41.61 40.16 41.61 40.47Q41.61 40.78 41.68 41.09L41.68 41.09Q41.68 41.25 41.72 41.37Q41.76 41.48 42.15 41.88L42.15 41.88L42.15 43.91Q42.23 44.30 42.27 44.53Q42.31 44.77 42.31 44.92L42.31 44.92L42.31 45.86Q42.46 46.56 42.50 46.76Q42.54 46.95 42.62 47.11L42.62 47.11Q42.78 47.89 42.54 48.52L42.54 48.52Q42.54 48.75 42.58 48.91Q42.62 49.06 42.62 49.38L42.62 49.38Q42.46 50.16 42.46 50.47Q42.46 50.78 42.39 50.94L42.39 50.94Q42.54 51.72 42.54 51.95L42.54 51.95Q42.46 53.28 42.43 53.67Q42.39 54.06 42.39 54.22L42.39 54.22L42.39 55.08Q42.31 56.25 42.15 56.41L42.15 56.41L42.15 57.73Q42.15 58.13 42.11 58.63Q42.07 59.14 41.76 59.69L41.76 59.69Q41.68 60.39 41.41 61.80Q41.14 63.20 40.51 63.91L40.51 63.91Q40.12 64.77 40.12 65.16L40.12 65.16Q40.12 65.55 40.08 65.90Q40.04 66.25 40.04 66.64L40.04 66.64Q39.96 67.03 39.93 67.30Q39.89 67.58 39.89 67.97L39.89 67.97L39.73 68.83Q39.11 69.77 39.03 69.92L39.03 69.92L38.64 70.78Q38.48 71.09 38.09 71.48L38.09 71.48Q37.93 72.03 37.70 72.27L37.70 72.27Q37.23 73.13 37.07 73.44Q36.92 73.75 36.76 73.91L36.76 73.91Q36.21 74.45 35.98 74.80Q35.75 75.16 35.59 75.31L35.59 75.31Q35.43 75.63 35.43 75.70L35.43 75.70Q35.04 75.94 34.73 76.17L34.73 76.17Q34.42 76.33 34.18 76.52Q33.95 76.72 33.87 76.72L33.87 76.72Q33.64 76.95 33.48 77.07Q33.32 77.19 33.25 77.27L33.25 77.27L33.17 77.34Q32.07 78.05 31.64 78.20Q31.21 78.36 30.98 78.36L30.98 78.36Q30.20 78.91 30.00 78.98Q29.81 79.06 29.65 79.06L29.65 79.06Q28.95 79.30 28.79 79.30Q28.64 79.30 28.64 79.38L28.64 79.38Q28.32 79.45 27.70 79.84L27.70 79.84Q27.31 79.69 27.23 79.77Q27.15 79.84 26.84 80.23L26.84 80.23L25.75 80.23Q25.12 80.47 24.81 80.63Q24.50 80.78 24.11 80.78L24.11 80.78Q23.40 80.63 23.25 80.66Q23.09 80.70 22.93 80.70L22.93 80.70Q22.07 80.86 21.61 80.90Q21.14 80.94 20.75 80.78L20.75 80.78Q20.28 80.94 19.69 80.94Q19.11 80.94 18.56 80.70L18.56 80.70Q18.17 80.47 17.86 80.39Q17.54 80.31 17.31 80.23L17.31 80.23Q17.15 80.16 16.84 80.04Q16.53 79.92 16.29 79.61L16.29 79.61Q15.67 79.45 15.28 79.30L15.28 79.30Q14.89 79.14 14.54 79.02Q14.18 78.91 13.71 78.59L13.71 78.59Q13.56 78.20 13.44 78.09Q13.32 77.97 13.25 77.81L13.25 77.81Q12.86 77.73 12.15 77.11L12.15 77.11Q11.76 76.72 11.53 76.60Q11.29 76.48 11.14 76.41L11.14 76.41L10.43 75.78Q10.20 75 10.08 74.73Q9.96 74.45 9.81 74.30L9.81 74.30Q9.65 74.06 9.42 73.75Q9.18 73.44 9.03 73.05L9.03 73.05Q8.79 72.42 8.75 72.34Q8.71 72.27 8.56 72.27L8.56 72.27Q8.17 71.41 8.05 70.98Q7.93 70.55 7.78 70.31L7.78 70.31Q7.70 69.92 7.70 69.14L7.70 69.14Q7.39 68.28 7.27 67.97Q7.15 67.66 6.84 67.27L6.84 67.27Q7.00 66.64 6.92 66.41L6.92 66.41Q6.84 66.02 6.76 65.66Q6.68 65.31 6.76 64.84L6.76 64.84Q6.68 64.06 6.61 63.91L6.61 63.91L6.53 61.88Q6.37 61.25 6.41 60.90Q6.45 60.55 6.53 60.16L6.53 60.16Q6.53 59.77 6.68 59.30L6.68 59.30L6.84 58.83Q7.00 58.75 7.07 58.59L7.07 58.59Q7.15 58.44 7.19 58.32Q7.23 58.20 7.31 58.05L7.31 58.05Q7.93 57.89 8.05 57.85Q8.17 57.81 8.25 57.81L8.25 57.81Q8.56 57.66 8.75 57.62Q8.95 57.58 9.34 57.42L9.34 57.42Q9.96 57.58 10.24 57.62Q10.51 57.66 10.90 57.66L10.90 57.66L12.00 58.05Q12.39 58.44 12.46 58.55Q12.54 58.67 12.62 58.67L12.62 58.67L12.93 59.14Q13.09 59.38 13.17 59.53L13.17 59.53L13.17 59.92Q13.17 60.08 13.21 60.23Q13.25 60.39 13.25 60.47L13.25 60.47Q13.32 60.94 13.25 61.25Q13.17 61.56 13.17 61.72L13.17 61.72Q13.32 62.19 13.17 62.81L13.17 62.81Q13.25 62.97 13.32 63.16Q13.40 63.36 13.48 63.75L13.48 63.75Q13.64 64.84 13.71 65.08Q13.79 65.31 13.87 65.63L13.87 65.63Q13.87 66.33 14.03 66.48L14.03 66.48Q14.18 66.88 14.22 67.03Q14.26 67.19 14.34 67.42L14.34 67.42Q14.50 67.97 14.61 68.20Q14.73 68.44 14.81 68.67L14.81 68.67Q14.89 69.06 14.89 69.26Q14.89 69.45 14.89 69.61L14.89 69.61Q15.28 70.08 15.47 70.39Q15.67 70.70 15.82 71.09L15.82 71.09Q16.37 71.48 16.68 72.11L16.68 72.11Q17.23 72.50 17.54 72.73Q17.86 72.97 18.01 73.13L18.01 73.13L18.87 73.36Q19.34 73.75 19.50 73.79Q19.65 73.83 19.81 73.67L19.81 73.67Q20.20 74.06 20.32 74.18Q20.43 74.30 20.51 74.30L20.51 74.30Q21.21 74.06 21.68 74.22L21.68 74.22Q22.46 73.98 23.25 74.14L23.25 74.14Q24.34 73.75 24.57 73.67Q24.81 73.59 25.04 73.36L25.04 73.36Q25.59 73.28 25.79 73.24Q25.98 73.20 26.14 73.13L26.14 73.13Q26.84 72.97 27.15 72.85Q27.46 72.73 27.70 72.73L27.70 72.73Q28.01 72.58 28.29 72.46Q28.56 72.34 28.87 72.19L28.87 72.19Q28.95 71.95 29.42 71.48L29.42 71.48Q29.81 71.09 30.20 70.94L30.20 70.94L30.90 70.23Q31.14 69.92 31.84 69.06Q32.54 68.20 32.62 68.13L32.62 68.13Q32.62 67.89 32.62 67.62Q32.62 67.34 32.78 67.19L32.78 67.19Q32.93 66.09 33.01 65.82Q33.09 65.55 33.25 65.39L33.25 65.39Q33.40 65.08 33.44 64.96Q33.48 64.84 33.40 64.45L33.40 64.45Q33.87 63.59 33.99 63.32Q34.11 63.05 34.26 62.73L34.26 62.73Q34.18 61.25 34.65 60.47L34.65 60.47Q34.65 59.69 34.69 59.26Q34.73 58.83 35.12 58.44L35.12 58.44Q35.20 57.73 35.20 57.42Q35.20 57.11 35.20 56.72L35.20 56.72Q35.59 55.86 35.59 55.16L35.59 55.16L35.51 53.52Q35.59 53.05 35.59 52.73L35.59 52.73Q35.59 52.42 35.59 52.11Q35.59 51.80 35.67 51.64L35.67 51.64Q35.75 51.41 35.75 51.29Q35.75 51.17 35.59 50.78L35.59 50.78Q35.75 50 35.75 49.57Q35.75 49.14 35.75 48.83L35.75 48.83Q35.67 48.44 35.67 48.16Q35.67 47.89 35.59 47.66L35.59 47.66Q35.04 46.64 35.36 45.94L35.36 45.94Q35.28 45.55 35.28 44.77L35.28 44.77Q34.89 43.91 34.89 43.63Q34.89 43.36 34.89 43.20L34.89 43.20Q34.81 42.27 34.81 41.95Q34.81 41.64 34.73 41.48L34.73 41.48Q34.65 41.17 34.61 40.82Q34.57 40.47 34.50 40.16L34.50 40.16Q34.50 39.84 34.54 39.61Q34.57 39.38 34.57 39.22L34.57 39.22Q34.57 38.52 34.50 38.36L34.50 38.36Q34.34 37.73 34.26 37.46Q34.18 37.19 34.18 36.95L34.18 36.95Q34.18 36.33 34.22 36.13Q34.26 35.94 34.26 35.78L34.26 35.78Q34.03 35 34.03 34.38L34.03 34.38Q34.18 33.83 34.22 33.52Q34.26 33.20 34.26 32.89L34.26 32.89Q34.26 32.03 34.18 31.95L34.18 31.95Q33.87 31.09 33.87 30.70L33.87 30.70L33.87 29.84Q33.71 28.83 33.64 27.85Q33.56 26.88 33.56 26.17L33.56 26.17Q33.25 26.09 32.39 26.09L32.39 26.09Q31.61 26.09 30.94 26.17Q30.28 26.25 29.89 26.25L29.89 26.25Q29.34 26.33 29.22 26.37Q29.11 26.41 28.71 26.56L28.71 26.56Q28.17 26.33 27.78 26.29Q27.39 26.25 27.00 26.25L27.00 26.25Q26.53 26.41 26.06 26.25L26.06 26.25Q25.82 26.25 25.47 26.21Q25.12 26.17 24.34 25.94L24.34 25.94Q24.11 25.47 23.99 25.35Q23.87 25.23 23.79 25.08L23.79 25.08Q23.48 24.69 23.40 24.53Q23.32 24.38 23.25 24.30L23.25 24.30Q23.17 24.14 22.62 23.59L22.62 23.59Q22.70 22.97 22.66 22.81Q22.62 22.66 22.62 22.50L22.62 22.50Q22.62 22.27 22.62 21.88Q22.62 21.48 22.86 20.86L22.86 20.86Q23.64 20.23 24.38 20.08Q25.12 19.92 25.75 19.92L25.75 19.92Q26.21 19.92 26.72 20Q27.23 20.08 27.62 20L27.62 20Q28.48 19.92 28.83 19.88Q29.18 19.84 29.57 19.92L29.57 19.92Q30.12 19.84 30.24 19.84Q30.36 19.84 30.51 19.84L30.51 19.84L31.37 19.84Q32.15 19.84 32.43 19.77Q32.70 19.69 33.09 19.61L33.09 19.61Q33.71 19.69 33.79 19.69Q33.87 19.69 33.95 19.69L33.95 19.69Q34.42 19.69 34.81 19.61Q35.20 19.53 35.51 19.45L35.51 19.45Q35.82 19.38 36.21 19.22L36.21 19.22L36.92 19.22Q37.23 19.22 37.58 19.26Q37.93 19.30 38.17 19.22L38.17 19.22L39.73 19.22Q40.75 19.22 41.10 19.22Q41.45 19.22 41.76 19.30L41.76 19.30Q42.39 19.14 42.78 19.10Q43.17 19.06 43.48 19.06L43.48 19.06Q43.79 19.06 44.11 19.14L44.11 19.14Q44.50 19.22 44.81 19.38L44.81 19.38Q45.43 19.61 45.67 19.84L45.67 19.84Q45.82 19.92 46.29 20.08L46.29 20.08Q46.53 20.16 46.68 20.23L46.68 20.23L47.15 21.56Q47.31 21.88 47.31 22.19Q47.31 22.50 47.31 22.66ZM93.56 24.84L93.56 25.78Q93.56 26.41 93.17 26.80L93.17 26.80Q93.01 27.19 92.93 27.46Q92.86 27.73 92.70 27.89L92.70 27.89Q92.54 28.13 92.07 28.44L92.07 28.44Q91.84 28.59 91.68 28.75L91.68 28.75Q91.29 28.83 90.98 28.83L90.98 28.83Q90.67 28.83 90.43 28.87Q90.20 28.91 90.12 28.83L90.12 28.83Q88.40 28.52 87.31 28.55Q86.21 28.59 85.12 28.83L85.12 28.83Q85.04 29.38 84.65 29.61L84.65 29.61Q84.50 30 84.34 30.43Q84.18 30.86 84.03 31.25L84.03 31.25Q83.87 31.80 83.87 32.03Q83.87 32.27 83.71 32.50L83.71 32.50Q83.64 32.97 83.44 33.40Q83.25 33.83 83.09 34.06L83.09 34.06L82.93 35.08Q82.70 36.02 82.70 35.94L82.70 35.94Q82.54 36.48 82.54 36.60Q82.54 36.72 82.54 36.80L82.54 36.80Q82.31 37.50 82.23 37.77Q82.15 38.05 82.07 38.20L82.07 38.20Q82.00 38.28 82.00 38.48Q82.00 38.67 81.92 38.83L81.92 38.83Q81.84 39.06 81.84 39.30L81.84 39.30Q81.68 39.53 81.61 39.77L81.61 39.77Q81.45 40.23 81.45 40.47L81.45 40.47Q81.29 41.33 80.90 41.95L80.90 41.95Q80.51 42.81 80.43 42.97Q80.36 43.13 80.36 43.28L80.36 43.28Q80.04 44.06 80.00 44.38Q79.96 44.69 79.96 44.92L79.96 44.92Q79.89 45.16 79.81 45.43Q79.73 45.70 79.50 46.02L79.50 46.02Q79.42 46.33 79.34 46.52Q79.26 46.72 79.18 46.88L79.18 46.88Q78.87 47.73 78.79 47.97Q78.71 48.20 78.64 48.44L78.64 48.44Q78.48 48.75 78.40 49.06Q78.32 49.38 78.09 49.69L78.09 49.69Q78.01 50 77.70 50.63L77.70 50.63Q77.62 51.48 77.54 51.88Q77.46 52.27 77.39 52.42L77.39 52.42Q77.31 52.58 77.23 52.89Q77.15 53.20 77.07 53.52L77.07 53.52Q76.92 53.83 76.84 54.22L76.84 54.22Q76.76 54.30 76.61 54.53L76.61 54.53Q76.29 55.08 76.37 55.78L76.37 55.78Q76.06 56.33 75.94 56.48Q75.82 56.64 75.82 56.80L75.82 56.80Q75.67 57.19 75.51 57.66L75.51 57.66Q74.96 58.67 74.85 59.02Q74.73 59.38 74.65 59.77L74.65 59.77Q74.50 60.16 74.50 60.66Q74.50 61.17 74.42 61.80L74.42 61.80L73.71 63.20Q73.64 64.45 73.56 64.61L73.56 64.61Q73.40 65.70 73.29 66.02Q73.17 66.33 73.09 66.48L73.09 66.48Q72.70 67.42 72.62 67.89L72.62 67.89Q72.54 68.20 72.54 68.36L72.54 68.36Q72.39 68.67 72.23 68.91L72.23 68.91Q72.07 69.22 72.00 69.30L72.00 69.30L71.84 69.45Q71.76 70 71.57 70.43Q71.37 70.86 71.14 71.25L71.14 71.25Q70.90 71.72 70.59 72.27L70.59 72.27Q70.43 72.50 70.28 72.66L70.28 72.66Q70.12 72.81 69.89 72.97L69.89 72.97Q69.73 73.13 69.50 73.24Q69.26 73.36 69.11 73.44L69.11 73.44Q67.54 73.98 66.14 73.75Q64.73 73.52 64.11 72.27L64.11 72.27Q63.79 72.11 63.64 71.99Q63.48 71.88 63.25 71.64L63.25 71.64Q62.93 71.02 62.82 70.70Q62.70 70.39 62.78 70L62.78 70Q62.39 69.14 62.27 68.91Q62.15 68.67 62.00 68.52L62.00 68.52Q61.84 68.28 61.76 68.01Q61.68 67.73 61.68 67.34L61.68 67.34Q61.45 66.88 61.21 66.29Q60.98 65.70 60.82 65.31L60.82 65.31Q60.43 64.84 60.36 64.73Q60.28 64.61 60.20 64.53L60.20 64.53Q59.57 63.75 59.46 63.44Q59.34 63.13 59.26 62.89L59.26 62.89L58.64 61.64Q58.48 61.25 58.40 60.94L58.40 60.94Q58.25 60.63 58.21 60.35Q58.17 60.08 58.09 59.92L58.09 59.92L57.62 58.52Q57.00 57.34 57.00 56.88L57.00 56.88Q56.68 56.25 56.64 56.13Q56.61 56.02 56.61 55.94L56.61 55.94Q56.21 54.61 56.02 54.26Q55.82 53.91 55.59 53.67L55.59 53.67Q55.51 53.28 55.51 52.89L55.51 52.89Q55.51 52.73 55.43 52.73L55.43 52.73Q54.81 51.56 54.65 51.09Q54.50 50.63 54.34 50.31L54.34 50.31Q53.71 48.98 53.52 48.55Q53.32 48.13 53.25 47.89L53.25 47.89Q52.46 46.09 52.00 45.39L52.00 45.39Q51.84 45.23 51.68 45.08Q51.53 44.92 51.37 44.61L51.37 44.61Q51.14 44.30 51.14 43.67L51.14 43.67Q50.82 42.66 50.82 42.73L50.82 42.73Q50.67 42.34 50.59 42.19Q50.51 42.03 50.43 41.88L50.43 41.88Q50.28 41.64 50.20 41.45Q50.12 41.25 50.04 40.86L50.04 40.86Q50.04 40.47 49.89 40L49.89 40Q49.57 39.22 49.50 38.83L49.50 38.83Q49.26 38.36 49.26 37.66L49.26 37.66Q49.11 37.27 48.99 36.95Q48.87 36.64 48.71 36.25L48.71 36.25Q48.56 35.94 48.25 35.63L48.25 35.63Q48.01 35.47 47.86 35.31L47.86 35.31L47.62 34.61Q47.39 33.91 47.27 33.67Q47.15 33.44 47.15 33.28L47.15 33.28Q46.92 33.05 46.64 32.66Q46.37 32.27 46.29 31.80L46.29 31.80Q46.21 31.64 46.06 31.56Q45.90 31.48 45.28 31.09L45.28 31.09L44.65 29.84Q44.50 28.98 44.34 28.98L44.34 28.98Q43.95 28.28 43.87 28.16Q43.79 28.05 43.79 27.97L43.79 27.97Q43.48 27.34 43.36 27.11Q43.25 26.88 43.17 26.72L43.17 26.72Q42.70 26.56 42.27 26.68Q41.84 26.80 41.21 27.03L41.21 27.03Q40.75 26.88 40.59 26.84Q40.43 26.80 40.28 26.88L40.28 26.88L37.70 26.88Q37.23 26.41 36.96 26.37Q36.68 26.33 36.53 26.17L36.53 26.17Q36.37 26.02 36.14 25.94Q35.90 25.86 35.75 25.70L35.75 25.70Q35.36 25.39 35.24 24.84Q35.12 24.30 35.04 23.67L35.04 23.67Q35.04 23.36 35.12 23.09Q35.20 22.81 35.28 22.66L35.28 22.66Q35.67 21.95 35.75 21.80Q35.82 21.64 35.98 21.56L35.98 21.56Q36.06 21.48 36.18 21.45Q36.29 21.41 36.45 21.33L36.45 21.33L36.76 21.17Q37.00 21.17 37.15 21.09L37.15 21.09Q37.46 20.94 37.54 20.94L37.54 20.94Q38.87 20.78 39.50 20.82Q40.12 20.86 40.51 20.86L40.51 20.86Q41.21 20.94 41.61 20.86L41.61 20.86Q42.00 20.78 42.39 20.70Q42.78 20.63 43.17 20.70L43.17 20.70Q43.56 20.55 44.07 20.47Q44.57 20.39 44.96 20.55L44.96 20.55Q45.28 20.47 45.82 20.47L45.82 20.47Q46.21 20.31 46.45 20.27Q46.68 20.23 47.07 20.16L47.07 20.16Q47.70 20.31 47.82 20.27Q47.93 20.23 48.09 20.08L48.09 20.08Q49.11 20.31 49.26 20.31L49.26 20.31Q50.12 20.16 50.51 20.23L50.51 20.23Q51.14 20.31 51.41 20.27Q51.68 20.23 51.84 20.23L51.84 20.23Q52.15 20.16 52.39 20.12Q52.62 20.08 53.01 20.08L53.01 20.08Q53.40 20.16 53.60 20.20Q53.79 20.23 53.95 20.31L53.95 20.31Q54.34 20.47 54.54 20.47Q54.73 20.47 55.04 20.47L55.04 20.47Q56.06 21.48 56.41 22.23Q56.76 22.97 56.76 24.30L56.76 24.30Q56.45 25 56.25 25.31Q56.06 25.63 55.67 26.02L55.67 26.02Q54.96 26.25 54.73 26.25L54.73 26.25Q54.11 26.41 53.91 26.45Q53.71 26.48 53.32 26.72L53.32 26.72Q52.78 26.56 52.39 26.56Q52.00 26.56 51.61 26.56L51.61 26.56L50.82 26.56Q50.82 26.72 50.90 26.95L50.90 26.95Q50.98 27.11 50.98 27.30Q50.98 27.50 51.06 27.58L51.06 27.58Q51.21 27.73 51.18 28.05Q51.14 28.36 51.29 28.59L51.29 28.59Q51.61 28.98 51.84 29.22Q52.07 29.45 52.54 29.69L52.54 29.69Q52.70 30.23 52.82 30.47Q52.93 30.70 53.01 30.94L53.01 30.94Q53.40 31.48 53.48 31.56Q53.56 31.64 53.71 31.72L53.71 31.72Q54.11 32.34 54.22 32.46Q54.34 32.58 54.42 32.66L54.42 32.66Q55.04 33.36 54.81 34.14L54.81 34.14Q54.96 34.53 55.08 34.73Q55.20 34.92 55.59 35.23L55.59 35.23Q55.59 35.94 55.63 36.09Q55.67 36.25 55.75 36.41L55.75 36.41Q56.06 36.95 56.37 37.50Q56.68 38.05 56.61 38.67L56.61 38.67Q56.76 38.98 56.84 39.14Q56.92 39.30 57.00 39.45L57.00 39.45Q57.07 40.08 57.07 40.20Q57.07 40.31 57.07 40.39L57.07 40.39Q57.31 41.33 57.39 41.56Q57.46 41.80 57.54 41.95L57.54 41.95Q57.86 42.66 57.93 42.85Q58.01 43.05 58.09 43.20L58.09 43.20Q58.48 43.67 58.64 43.95Q58.79 44.22 58.87 44.61L58.87 44.61Q59.26 45.23 59.42 45.47Q59.57 45.70 59.96 46.09L59.96 46.09Q59.96 46.56 60.04 46.76Q60.12 46.95 60.28 47.11L60.28 47.11Q60.43 47.73 60.43 47.81Q60.43 47.89 60.43 47.97L60.43 47.97Q61.06 48.75 61.06 49.38L61.06 49.38Q61.45 50.23 61.49 50.39Q61.53 50.55 61.61 50.63L61.61 50.63Q61.92 51.02 62.04 51.25Q62.15 51.48 62.31 51.88L62.31 51.88Q62.46 52.27 62.62 52.73L62.62 52.73Q63.01 53.83 63.09 54.30Q63.17 54.77 63.25 55.08L63.25 55.08L63.71 56.64Q63.87 57.03 64.03 57.34Q64.18 57.66 64.42 58.05L64.42 58.05Q64.81 58.98 64.89 59.14L64.89 59.14Q65.43 60.23 65.59 60.66Q65.75 61.09 65.90 61.41L65.90 61.41Q66.37 62.03 66.45 62.19Q66.53 62.34 66.53 62.50L66.53 62.50Q66.84 62.34 66.96 62.11Q67.07 61.88 67.23 61.72L67.23 61.72Q67.31 61.33 67.35 61.13Q67.39 60.94 67.39 60.78L67.39 60.78Q67.39 59.84 67.70 59.30L67.70 59.30Q67.78 58.83 67.82 58.59Q67.86 58.36 67.93 57.97L67.93 57.97Q68.48 57.03 68.56 56.48L68.56 56.48Q68.71 56.09 68.83 55.78Q68.95 55.47 69.11 55.08L69.11 55.08Q69.50 54.14 69.57 53.87Q69.65 53.59 69.65 53.44L69.65 53.44Q69.89 52.58 70.00 52.11Q70.12 51.64 70.43 51.33L70.43 51.33Q70.43 51.02 70.43 50.78Q70.43 50.55 70.59 50.23L70.59 50.23Q70.82 49.38 71.06 48.98L71.06 48.98Q71.21 48.36 71.33 47.93Q71.45 47.50 71.84 47.19L71.84 47.19Q72.15 46.33 72.31 46.17L72.31 46.17L73.01 43.36Q73.17 42.81 73.40 42.34L73.40 42.34Q73.56 41.95 73.68 41.52Q73.79 41.09 73.79 40.78L73.79 40.78Q74.18 40.39 74.46 39.69Q74.73 38.98 74.81 38.75L74.81 38.75Q75.04 37.89 75.04 37.66Q75.04 37.42 75.12 37.03L75.12 37.03Q75.28 36.64 75.47 36.21Q75.67 35.78 75.82 35.31L75.82 35.31L76.06 34.38Q76.14 34.06 76.14 33.83L76.14 33.83Q76.14 33.59 76.21 33.36L76.21 33.36Q76.37 32.89 76.37 32.73L76.37 32.73Q76.53 32.50 76.64 32.19Q76.76 31.88 76.92 31.56L76.92 31.56Q77.15 30.78 77.23 30.47Q77.31 30.16 77.39 29.92L77.39 29.92Q77.46 29.77 77.54 29.53Q77.62 29.30 77.70 28.98L77.70 28.98Q77.15 28.91 76.84 29.06L76.84 29.06Q75.98 29.38 75.82 29.38L75.82 29.38Q75.20 29.53 74.65 29.38L74.65 29.38Q73.56 29.22 73.13 28.98Q72.70 28.75 72.46 28.59L72.46 28.59Q72.15 28.44 71.76 27.89L71.76 27.89Q71.53 27.58 71.37 27.34L71.37 27.34L71.06 25Q71.21 24.77 71.37 24.45L71.37 24.45Q71.53 24.30 71.57 24.10Q71.61 23.91 71.68 23.83L71.68 23.83Q72.93 23.20 73.68 23.01Q74.42 22.81 75.12 23.13L75.12 23.13Q75.82 22.97 76.49 22.89Q77.15 22.81 77.78 22.73L77.78 22.73Q78.40 22.66 78.91 22.58Q79.42 22.50 79.81 22.58L79.81 22.58Q80.28 22.42 80.51 22.42Q80.75 22.42 80.98 22.42L80.98 22.42Q81.53 22.42 81.80 22.38Q82.07 22.34 82.31 22.27L82.31 22.27Q82.54 22.19 82.82 22.23Q83.09 22.27 83.48 22.27L83.48 22.27Q83.87 22.27 84.03 22.30Q84.18 22.34 84.34 22.34L84.34 22.34Q85.12 22.19 85.39 22.15Q85.67 22.11 85.82 22.19L85.82 22.19Q86.37 22.34 86.49 22.34Q86.61 22.34 86.68 22.34L86.68 22.34Q87.23 22.19 87.43 22.11Q87.62 22.03 87.86 22.03L87.86 22.03L88.95 22.11L89.96 22.34Q90.59 22.34 90.90 22.42Q91.21 22.50 91.37 22.66L91.37 22.66Q92.00 22.97 92.15 23.05Q92.31 23.13 92.31 23.20L92.31 23.20L92.93 23.52Q93.09 23.59 93.17 23.59L93.17 23.59Q93.25 23.83 93.40 24.14L93.40 24.14Q93.48 24.38 93.56 24.57Q93.64 24.77 93.56 24.84L93.56 24.84Z" fill="#ffffff"></path></svg>