<?xml version="1.0" encoding="UTF-8" standalone="no"?>
<svg
   version="1.0"
   width="399.81451pt"
   height="235.9059pt"
   viewBox="0 0 399.81451 235.9059"
   preserveAspectRatio="xMidYMid"
   id="svg24"
   sodipodi:docname="logo.svg"
   inkscape:version="1.2.2 (732a01da63, 2022-12-09, custom)"
   xmlns:inkscape="http://www.inkscape.org/namespaces/inkscape"
   xmlns:sodipodi="http://sodipodi.sourceforge.net/DTD/sodipodi-0.dtd"
   xmlns="http://www.w3.org/2000/svg"
   xmlns:svg="http://www.w3.org/2000/svg">
  <defs
     id="defs28" />
  <sodipodi:namedview
     id="namedview26"
     pagecolor="#505050"
     bordercolor="#ffffff"
     borderopacity="1"
     inkscape:showpageshadow="0"
     inkscape:pageopacity="0"
     inkscape:pagecheckerboard="1"
     inkscape:deskcolor="#505050"
     inkscape:document-units="pt"
     showgrid="false"
     inkscape:zoom="1.5405"
     inkscape:cx="240.8309"
     inkscape:cy="160.98669"
     inkscape:window-width="3440"
     inkscape:window-height="1285"
     inkscape:window-x="0"
     inkscape:window-y="324"
     inkscape:window-maximized="1"
     inkscape:current-layer="svg24" />
  <g
     transform="matrix(0.1,0,0,-0.1,-50.121539,371.03412)"
     fill="#ffffff"
     stroke="none"
     id="g22">
    <path
       d="m 890,3699 c -120,-9 -383,-38 -388,-44 -2,-2 0,-55 4,-118 l 7,-115 33,-16 c 62,-29 76,-62 124,-309 57,-291 123,-452 229,-557 122,-121 257,-170 468,-170 284,0 538,77 666,203 131,129 250,342 302,544 14,51 31,106 39,121 41,79 163,94 230,28 26,-26 36,-52 59,-141 52,-210 216,-491 341,-585 143,-108 371,-170 627,-170 213,0 347,48 470,170 50,50 76,86 108,152 51,107 100,276 136,469 30,164 52,214 107,244 l 36,19 7,114 c 4,62 5,115 4,117 -7,6 -264,34 -409,45 -229,16 -683,13 -809,-6 -164,-23 -329,-63 -406,-96 -186,-80 -150,-73 -375,-73 -225,0 -189,-7 -375,73 -77,33 -242,73 -406,96 -117,18 -614,20 -829,5 z m 994,-128 c 161,-43 249,-114 282,-229 24,-81 21,-234 -5,-337 -44,-168 -156,-340 -271,-414 -124,-80 -330,-126 -530,-118 -202,8 -306,52 -403,172 -115,143 -178,338 -181,565 -1,101 2,121 23,167 52,115 181,189 371,213 36,5 193,7 350,6 254,-3 294,-6 364,-25 z m 2032,5 c 191,-48 289,-142 309,-292 9,-64 -10,-245 -36,-349 -38,-149 -144,-316 -243,-382 -147,-100 -443,-110 -698,-26 -107,35 -185,87 -253,170 -113,136 -176,310 -177,488 -2,216 68,315 263,376 107,33 179,38 484,34 221,-2 305,-7 351,-19 z M 780,3520 c 0,-19 -7,-20 -90,-20 -83,0 -90,1 -90,20 0,19 7,20 90,20 83,0 90,-1 90,-20 z m 3620,0 c 0,-19 -7,-20 -90,-20 -83,0 -90,1 -90,20 0,19 7,20 90,20 83,0 90,-1 90,-20 z"
       id="path18" />
    <path
       d="m 1973,2488.2822 c -104,-23 -189,-71 -273,-155 -122,-121 -170,-237 -170,-412 0,-109 16,-172 68,-273 67,-128 201,-235 351,-279 82,-24 1020,-24 1102,0 149,44 284,151 351,280 52,100 68,163 68,272 0,175 -48,291 -170,412 -85,85 -169,132 -277,155 -95,20 -957,20 -1050,0 z m 261,-316 c 50,-40 56,-64 56,-244 0,-135 -3,-174 -17,-202 -42,-89 -168,-98 -232,-17 -20,25 -21,39 -21,211 0,195 3,212 48,250 37,31 127,32 166,2 z m 720,0 c 50,-40 56,-64 56,-244 0,-187 -8,-222 -62,-255 -65,-40 -159,-16 -193,49 -12,24 -15,67 -15,208 0,159 2,181 19,207 27,41 57,55 117,56 37,0 59,-6 78,-21 z"
       id="path20" />
  </g>
</svg>
